<?xml version="1.0" encoding="UTF-8"?><svg id="Layer_1" xmlns="http://www.w3.org/2000/svg" viewBox="0 0 92.42 86.09"><defs><style>.cls-1{fill:#fff;fill-rule:evenodd;stroke-width:0px;}</style></defs><path class="cls-1" d="M86.91,37.77v42.14l-21.25-21.54,21.25-20.59ZM35.16,47.98l10.71,10.38-21.25,21.54v-29.04c1.94-.11,4.11-.53,6.55-1.33,1.35-.45,2.69-.96,3.99-1.55ZM49.86,35.02l35.81.04-29.5,29.43-17.89-18.07c4.34-2.41,8.08-5.55,10.34-9.09.5-.77.91-1.55,1.24-2.32ZM40.89,30.45c-5.04,6.05-11.56,8.95-18.84,10.22L0,19.35C9.19,10.11,20.15,3.49,33.23,0l7.67,30.45ZM85.78,30.3h-34.74c.16-2.62-.56-4.84-1.8-6.14-2.26-2.37-7.78-2.81-7.78-2.81l1.61,6.54s.41-.82,1.11-1.65c.7-.83,1.36-.55,1.83-.09.47.46.5.98.23,1.76-.27.79-3.6,5.66-9.18,9.71-5.59,4.05-11.08,5.24-14.2,5.79-3.12.55-7.1,1.22-7.16-.64-.05-1.86,2.72-1.71,2.72-1.71l-4.45-4.09s-.68.77-1.34,2.82c-.66,2.04-1,7.03,2.77,9.06,1.2.64,2.5,1.19,3.95,1.55v29.06c0,3.66,2.99,6.65,6.65,6.65h59.79c3.65,0,6.65-2.99,6.65-6.65v-42.5c0-3.66-2.99-6.65-6.65-6.65Z"/></svg>