<?xml version="1.0" encoding="UTF-8"?><svg id="Layer_1" xmlns="http://www.w3.org/2000/svg" viewBox="0 0 605.93 102.05"><defs><style>.cls-1{fill:#fff;fill-rule:evenodd;stroke-width:0px;}</style></defs><path class="cls-1" d="M434.67,38.56v42.14l-21.25-21.54,21.25-20.59ZM382.92,48.78l10.71,10.38-21.25,21.54v-29.04c1.94-.11,4.11-.53,6.55-1.33,1.35-.45,2.69-.96,3.99-1.55ZM397.62,35.82l35.81.04-29.5,29.43-17.89-18.07c4.34-2.41,8.08-5.55,10.34-9.09.5-.77.91-1.55,1.24-2.32ZM388.66,31.25c-5.04,6.05-11.56,8.95-18.84,10.22l-22.05-21.32c9.19-9.24,20.15-15.86,33.23-19.35l7.67,30.45ZM308.39,85.87V28.9h13.6v24.25c1.17-2.67,2.85-4.68,5.04-6.04,2.19-1.36,4.72-2.04,7.6-2.04,4.11,0,7.44,1.2,10,3.6,2.56,2.4,3.84,5.92,3.84,10.56v26.65h-13.6v-22.89c0-2.88-.52-4.87-1.56-5.96-1.04-1.09-2.41-1.64-4.12-1.64-1.92,0-3.6.73-5.04,2.2-1.44,1.47-2.16,3.88-2.16,7.24v21.05h-13.6ZM283.13,45.06c4.05,0,7.43.59,10.12,1.76,2.69,1.17,4.79,2.69,6.28,4.56,1.49,1.87,2.45,3.89,2.88,6.08l-12.56,4.16c-.32-2.29-.99-4.01-2-5.16-1.01-1.15-2.45-1.72-4.32-1.72-2.56,0-4.49.91-5.8,2.72-1.31,1.81-1.96,4.67-1.96,8.56s.71,6.76,2.12,8.44c1.41,1.68,3.32,2.52,5.72,2.52,3.79,0,6-2.16,6.64-6.48l12.24,3.92c-.59,3.47-2.52,6.37-5.8,8.72-3.28,2.35-7.62,3.52-13,3.52-6.56,0-11.8-1.83-15.72-5.48-3.92-3.65-5.88-8.76-5.88-15.32,0-4.37.89-8.11,2.68-11.2,1.79-3.09,4.25-5.47,7.4-7.12,3.15-1.65,6.8-2.48,10.96-2.48ZM230.42,74.35c0,1.17.43,2.05,1.28,2.64.85.59,1.87.88,3.04.88,1.81,0,3.41-.55,4.8-1.64,1.39-1.09,2.08-2.81,2.08-5.16v-2.24l-6.48,1.36c-1.6.32-2.79.79-3.56,1.4-.77.61-1.16,1.53-1.16,2.76ZM241.62,60.5c0-1.87-.52-3.35-1.56-4.44-1.04-1.09-2.44-1.64-4.2-1.64s-3.27.44-4.52,1.32c-1.25.88-2.12,2.44-2.6,4.68l-11.52-2.72c.75-3.84,2.72-6.91,5.92-9.2,3.2-2.29,7.71-3.44,13.52-3.44s10.42,1.29,13.64,3.88c3.23,2.59,4.84,6.36,4.84,11.32v14.64c0,2.08.93,3.12,2.8,3.12.96,0,1.73-.11,2.32-.32l-.8,7.76c-1.6.75-3.55,1.12-5.84,1.12-2.51,0-4.67-.49-6.48-1.48-1.81-.99-3.04-2.49-3.68-4.52-1.12,2.08-2.89,3.61-5.32,4.6-2.43.99-5,1.48-7.72,1.48-4.11,0-7.38-.95-9.8-2.84-2.43-1.89-3.64-4.63-3.64-8.2,0-2.88.87-5.27,2.6-7.16,1.73-1.89,4.47-3.21,8.2-3.96l13.84-2.88v-1.12ZM192.99,54.58c-4.32,0-6.88,2.48-7.68,7.44h14.64c-.59-4.96-2.91-7.44-6.96-7.44ZM193.63,86.67c-6.67,0-11.94-1.81-15.8-5.44-3.87-3.63-5.8-8.75-5.8-15.36,0-4.37.89-8.12,2.68-11.24,1.79-3.12,4.24-5.49,7.36-7.12,3.12-1.63,6.76-2.44,10.92-2.44s7.8.81,10.76,2.44c2.96,1.63,5.21,3.87,6.76,6.72,1.55,2.85,2.32,6.12,2.32,9.8,0,1.01-.04,1.99-.12,2.92-.08.93-.15,1.72-.2,2.36h-27.29c.37,2.77,1.28,4.76,2.72,5.96,1.44,1.2,3.33,1.8,5.68,1.8,2.03,0,3.64-.4,4.84-1.2,1.2-.8,2.09-1.92,2.68-3.36l10.88,3.6c-.75,2.29-2.04,4.23-3.88,5.8-1.84,1.57-4.03,2.76-6.56,3.56-2.53.8-5.19,1.2-7.96,1.2ZM141.33,85.87v-40.01h12l.56,8.64c.96-2.93,2.44-5.24,4.44-6.92,2-1.68,4.57-2.52,7.72-2.52,1.01,0,1.88.09,2.6.28.72.19,1.29.39,1.72.6l-1.36,11.2c-.53-.16-1.21-.32-2.04-.48-.83-.16-1.83-.24-3-.24-2.45,0-4.57.77-6.36,2.32-1.79,1.55-2.68,3.87-2.68,6.96v20.17h-13.6ZM136.15,45.86v9.68h-11.92v16.08c0,1.92.47,3.29,1.4,4.12.93.83,2.23,1.24,3.88,1.24,1.28,0,2.37-.15,3.28-.44.91-.29,1.76-.73,2.56-1.32l1.44,8.4c-1.33.91-3.03,1.64-5.08,2.2-2.05.56-4.12.84-6.2.84-4.59,0-8.2-.97-10.84-2.92-2.64-1.95-3.99-5.24-4.04-9.88v-18.32h-6.88v-9.68h6.88v-8.96l13.6-3.76v12.72h11.92ZM72.64,86.67c-4.05,0-7.36-1.09-9.92-3.28-2.56-2.19-3.84-5.79-3.84-10.8v-26.73h13.6v23.53c0,2.56.51,4.35,1.52,5.36,1.01,1.01,2.45,1.52,4.32,1.52s3.56-.71,4.92-2.12c1.36-1.41,2.04-3.69,2.04-6.84v-21.45h13.6v40.01h-12.16l-.4-7.52c-1.28,2.83-3.07,4.92-5.36,6.28-2.29,1.36-5.07,2.04-8.32,2.04ZM25.93,43.06c-3.84,0-6.78,1.37-8.8,4.12-2.03,2.75-3.04,6.84-3.04,12.28s1.01,9.54,3.04,12.28c2.03,2.75,4.96,4.12,8.8,4.12s6.7-1.37,8.72-4.12c2.03-2.75,3.04-6.84,3.04-12.28s-1.01-9.54-3.04-12.28c-2.03-2.75-4.93-4.12-8.72-4.12ZM586.57,44.48c4.05,0,7.43.59,10.12,1.76,2.69,1.17,4.79,2.69,6.28,4.56,1.49,1.87,2.45,3.89,2.88,6.08l-12.56,4.16c-.32-2.29-.99-4.01-2-5.16-1.01-1.15-2.45-1.72-4.32-1.72-2.56,0-4.49.91-5.8,2.72-1.31,1.81-1.96,4.67-1.96,8.56s.71,6.76,2.12,8.44c1.41,1.68,3.32,2.52,5.72,2.52,3.79,0,6-2.16,6.64-6.48l12.24,3.92c-.59,3.47-2.52,6.37-5.8,8.72-3.28,2.35-7.62,3.52-13,3.52-6.56,0-11.8-1.83-15.72-5.48-3.92-3.65-5.88-8.76-5.88-15.32,0-4.37.89-8.11,2.68-11.2,1.79-3.09,4.25-5.47,7.4-7.12,3.15-1.65,6.8-2.48,10.96-2.48ZM512.82,93.25c3.81,0,6.66-.39,8.53-1.16,1.88-.77,2.82-1.75,2.82-2.92,0-.8-.3-1.43-.91-1.88-.61-.45-1.65-.68-3.14-.68h-14.21c-1.01,0-1.81.27-2.42.8-.61.53-.91,1.2-.91,2,0,1.23.9,2.17,2.7,2.84,1.8.67,4.31,1,7.54,1ZM513.29,51.8c-1.75,0-3.16.51-4.25,1.52-1.08,1.01-1.63,2.45-1.63,4.32s.54,3.23,1.63,4.24c1.09,1.01,2.5,1.52,4.25,1.52s3.1-.51,4.21-1.52c1.11-1.01,1.67-2.43,1.67-4.24s-.56-3.31-1.67-4.32c-1.11-1.01-2.51-1.52-4.21-1.52ZM520.28,75.97c4.6,0,8.14.97,10.6,2.92,2.46,1.95,3.69,4.73,3.69,8.36,0,5.01-1.97,8.74-5.91,11.16-3.94,2.43-9.25,3.64-15.92,3.64-7.2,0-12.39-.91-15.56-2.72-3.18-1.81-4.76-4.27-4.76-7.36,0-1.81.6-3.36,1.79-4.64,1.19-1.28,3.11-2.16,5.76-2.64-3.86-1.44-5.8-4.13-5.8-8.08,0-1.87.56-3.51,1.67-4.92,1.11-1.41,2.65-2.44,4.6-3.08-4.23-2.35-6.35-6-6.35-10.96,0-4.32,1.68-7.67,5.04-10.04,3.36-2.37,8.08-3.56,14.17-3.56,3.07,0,5.85.32,8.34.96.21-1.92.75-3.71,1.63-5.36.87-1.65,2.09-3,3.65-4.04,1.56-1.04,3.48-1.56,5.76-1.56.16,0,.34.01.56.04.21.03.45.04.71.04l1.11,9.12c-.58-.16-1.22-.24-1.91-.24-1.85,0-3.33.37-4.45,1.12-1.11.75-1.85,1.71-2.22,2.88,3.97,2.35,5.95,5.89,5.95,10.64,0,4.32-1.68,7.66-5.04,10-3.36,2.35-8.06,3.52-14.09,3.52-2.75,0-5.24-.24-7.46-.72-1.75.53-2.62,1.47-2.62,2.8,0,1.81,1.48,2.72,4.45,2.72h12.62ZM460.18,73.33c0,1.17.42,2.05,1.27,2.64.85.59,1.85.88,3.02.88,1.8,0,3.39-.55,4.76-1.64,1.38-1.09,2.06-2.81,2.06-5.16v-2.24l-6.43,1.36c-1.59.32-2.77.79-3.53,1.4-.77.61-1.15,1.53-1.15,2.76ZM471.29,59.48c0-1.87-.52-3.35-1.55-4.44-1.03-1.09-2.42-1.64-4.17-1.64s-3.24.44-4.49,1.32c-1.24.88-2.1,2.44-2.58,4.68l-11.43-2.72c.74-3.84,2.7-6.91,5.88-9.2,3.18-2.29,7.65-3.44,13.42-3.44s10.33,1.29,13.54,3.88c3.2,2.59,4.8,6.36,4.8,11.32v14.64c0,2.08.93,3.12,2.78,3.12.95,0,1.72-.11,2.3-.32l-.79,7.76c-1.59.75-3.52,1.12-5.8,1.12-2.49,0-4.63-.49-6.43-1.48-1.8-.99-3.02-2.49-3.65-4.52-1.11,2.08-2.87,3.61-5.28,4.6-2.41.99-4.96,1.48-7.66,1.48-4.08,0-7.32-.95-9.73-2.84-2.41-1.89-3.61-4.63-3.61-8.2,0-2.88.86-5.27,2.58-7.16,1.72-1.89,4.43-3.21,8.14-3.96l13.74-2.88v-1.12ZM25.93,32.26c5.33,0,9.94,1.08,13.8,3.24,3.87,2.16,6.84,5.27,8.92,9.32,2.08,4.05,3.12,8.94,3.12,14.64s-1.04,10.59-3.12,14.64c-2.08,4.05-5.05,7.16-8.92,9.32-3.87,2.16-8.47,3.24-13.8,3.24s-10.02-1.08-13.88-3.24c-3.87-2.16-6.84-5.27-8.92-9.32-2.08-4.05-3.12-8.94-3.12-14.64s1.04-10.59,3.12-14.64c2.08-4.05,5.05-7.16,8.92-9.32,3.87-2.16,8.5-3.24,13.88-3.24ZM433.54,31.1h-34.74c.16-2.62-.56-4.84-1.8-6.14-2.26-2.37-7.78-2.81-7.78-2.81l1.61,6.54s.41-.82,1.11-1.65c.7-.83,1.36-.55,1.83-.09.47.46.5.98.23,1.76-.27.79-3.6,5.66-9.18,9.71-5.59,4.05-11.08,5.24-14.2,5.79-3.12.55-7.1,1.22-7.16-.64-.05-1.86,2.72-1.71,2.72-1.71l-4.45-4.09s-.68.77-1.34,2.82c-.66,2.04-1,7.03,2.77,9.06,1.2.64,2.5,1.19,3.95,1.55v29.06c0,3.66,2.99,6.65,6.65,6.65h59.79c3.65,0,6.65-2.99,6.65-6.65v-42.5c0-3.66-2.99-6.65-6.65-6.65Z"/><path class="cls-1" d="M544.76,30.93l1.96-.35c1.48-.26,2.91.73,3.18,2.21l1.45,8.09c.26,1.48-.73,2.91-2.21,3.18l-1.97.35c-1.48.27-2.91-.73-3.18-2.21l-1.45-8.09c-.27-1.48.73-2.91,2.21-3.18M537.03.07h0c1.32-.32,2.66.51,2.98,1.83l4.29,17.87c.32,1.32-.51,2.67-1.83,2.98h0c-1.32.32-2.67-.51-2.98-1.83l-4.29-17.87c-.32-1.32.51-2.67,1.83-2.98ZM514.92,14.2h0c.72-1.13,2.24-1.47,3.37-.75l15.3,9.72c1.13.72,1.47,2.24.75,3.37h0c-.72,1.13-2.24,1.47-3.37.75l-15.3-9.72c-1.13-.72-1.47-2.23-.75-3.37ZM562.94,2.39h0c-1.13-.7-2.63-.35-3.33.79l-9.46,15.3c-.7,1.13-.35,2.63.79,3.33h0c1.13.7,2.63.35,3.33-.79l9.46-15.3c.7-1.13.35-2.63-.79-3.33ZM540.41,33.14c-.2,1.71,4.17,25.3,4.59,27.43,1.13,5.77,2.45,15.33,3.65,20.64,1.7,7.5,12.63,5.42,11.53-2.18-1.42-9.79-4.72-26.23-6.51-36.48-.42-2.39-1.46-10.15-2.46-11.62-2.9-4.2-10.25-2.48-10.8,2.21Z"/></svg>